<svg width="137" height="32" viewBox="0 0 137 32" fill="none" xmlns="http://www.w3.org/2000/svg">
<path d="M7.291 26.322C11.431 26.322 13.823 23.815 13.823 20.963C13.823 18.548 12.558 17.122 10.442 16.271L8.303 15.42C6.785 14.822 5.727 14.454 5.727 13.488C5.727 12.591 6.486 12.085 7.751 12.085C9.085 12.085 10.143 12.545 11.27 13.396L13.317 10.82C11.822 9.325 9.729 8.566 7.751 8.566C4.117 8.566 1.541 10.866 1.541 13.741C1.541 16.225 3.22 17.72 5.014 18.433L7.199 19.353C8.671 19.974 9.614 20.296 9.614 21.285C9.614 22.205 8.901 22.78 7.383 22.78C6.026 22.78 4.439 22.067 3.243 21.032L0.897 23.861C2.668 25.494 5.06 26.322 7.291 26.322ZM16.3455 30.761H20.4395V27.012L20.3015 24.965C21.1755 25.839 22.2335 26.322 23.3375 26.322C26.1435 26.322 28.8345 23.746 28.8345 19.238C28.8345 15.213 26.8565 12.591 23.7285 12.591C22.3715 12.591 21.0835 13.258 20.0485 14.178H19.9795L19.6805 12.913H16.3455V30.761ZM22.3715 22.964C21.7505 22.964 21.0835 22.78 20.4395 22.205V17.03C21.1295 16.271 21.7505 15.926 22.5095 15.926C23.9585 15.926 24.6255 17.007 24.6255 19.307C24.6255 21.929 23.6135 22.964 22.3715 22.964ZM32.7128 31.037C35.8178 31.037 37.2438 29.381 38.5088 26.023L43.0168 12.913H39.1068L37.5888 18.341C37.2898 19.583 36.9908 20.802 36.7378 22.044H36.6228C36.2778 20.756 36.0018 19.537 35.6108 18.341L33.8628 12.913H29.7458L34.7598 25.609L34.5758 26.276C34.2768 27.196 33.6328 27.84 32.3908 27.84C32.0918 27.84 31.7468 27.725 31.5168 27.679L30.7808 30.784C31.3328 30.945 31.8618 31.037 32.7128 31.037ZM45.4785 26H51.9415C55.6675 26 58.6345 24.436 58.6345 20.94C58.6345 18.663 57.3235 17.375 55.5985 16.915V16.823C56.9785 16.294 57.8295 14.638 57.8295 13.12C57.8295 9.831 55.0005 8.865 51.4585 8.865H45.4785V26ZM49.5955 15.673V12.016H51.2975C53.0225 12.016 53.8275 12.522 53.8275 13.741C53.8275 14.914 53.0455 15.673 51.2975 15.673H49.5955ZM49.5955 22.849V18.686H51.6425C53.6435 18.686 54.6325 19.261 54.6325 20.664C54.6325 22.136 53.6205 22.849 51.6425 22.849H49.5955ZM65.1047 26.322C66.8757 26.322 68.0947 25.494 69.1757 24.206H69.2677L69.5667 26H72.9017V12.913H68.8077V21.492C68.1177 22.458 67.5427 22.826 66.6227 22.826C65.5877 22.826 65.1047 22.297 65.1047 20.503V12.913H61.0107V21.009C61.0107 24.275 62.2297 26.322 65.1047 26.322ZM83.1896 26.322C85.9956 26.322 88.6866 23.746 88.6866 19.215C88.6866 15.213 86.6856 12.591 83.5576 12.591C82.3616 12.591 81.1426 13.12 80.1766 13.994L80.2916 12.039V7.623H76.1976V26H79.3946L79.7166 24.597H79.8316C80.8436 25.724 82.0396 26.322 83.1896 26.322ZM82.2236 22.964C81.6026 22.964 80.9126 22.78 80.2916 22.205V17.03C80.9816 16.271 81.6026 15.926 82.3616 15.926C83.8106 15.926 84.4776 17.007 84.4776 19.307C84.4776 21.929 83.4656 22.964 82.2236 22.964ZM98.3282 26.322C101.134 26.322 103.825 23.746 103.825 19.215C103.825 15.213 101.824 12.591 98.6962 12.591C97.5002 12.591 96.2812 13.12 95.3152 13.994L95.4302 12.039V7.623H91.3362V26H94.5332L94.8552 24.597H94.9702C95.9822 25.724 97.1782 26.322 98.3282 26.322ZM97.3622 22.964C96.7412 22.964 96.0512 22.78 95.4302 22.205V17.03C96.1202 16.271 96.7412 15.926 97.5002 15.926C98.9492 15.926 99.6162 17.007 99.6162 19.307C99.6162 21.929 98.6042 22.964 97.3622 22.964ZM110.201 26.322C111.121 26.322 111.788 26.161 112.225 25.977L111.742 22.964C111.512 23.01 111.42 23.01 111.282 23.01C110.96 23.01 110.569 22.757 110.569 21.883V7.623H106.475V21.745C106.475 24.482 107.395 26.322 110.201 26.322ZM120.046 26.322C121.564 26.322 123.358 25.793 124.715 24.827L123.358 22.366C122.415 22.918 121.541 23.194 120.598 23.194C118.942 23.194 117.7 22.458 117.332 20.664H125.014C125.106 20.342 125.198 19.629 125.198 18.893C125.198 15.328 123.358 12.591 119.586 12.591C116.435 12.591 113.376 15.213 113.376 19.445C113.376 23.792 116.274 26.322 120.046 26.322ZM117.263 17.973C117.539 16.432 118.528 15.719 119.655 15.719C121.15 15.719 121.725 16.685 121.725 17.973H117.263Z" fill="white"/>
<circle cx="131" cy="8" r="6" fill="#F3933A"/>
</svg>
